<svg xmlns="http://www.w3.org/2000/svg" width="64" height="64" viewBox="0 0 64 64">
<rect width="64" height="64" rx="12" fill="#1e3a5f"/>
<g transform="translate(12,12) scale(1.667)" stroke="#7eb3e0" stroke-width="2" stroke-linecap="round" stroke-linejoin="round" fill="none">
<path d="M6 22V4a2 2 0 0 1 2-2h8a2 2 0 0 1 2 2v18Z"/>
<path d="M6 12H4a2 2 0 0 0-2 2v6a2 2 0 0 0 2 2h2"/>
<path d="M18 9h2a2 2 0 0 1 2 2v9a2 2 0 0 1-2 2h-2"/>
<path d="M10 6h4"/><path d="M10 10h4"/><path d="M10 14h4"/><path d="M10 18h4"/>
</g>
</svg>
